<svg width="64" height="64" viewBox="0 0 64 64" fill="none" xmlns="http://www.w3.org/2000/svg">
<g clip-path="url(#clip0_8307_65539)">
<path fill-rule="evenodd" clip-rule="evenodd" d="M64 31.9991C64 49.6721 49.6733 63.9995 32 63.9995C14.3276 63.9995 0 49.6721 0 31.9991C0 14.3269 14.3276 -0.000488281 32 -0.000488281C49.6733 -0.000488281 64 14.3269 64 31.9991Z" fill="#353535"/>
<path d="M37.7341 20.5024C38.7777 20.7727 40.9315 21.2269 42.4186 22.3584C43.5892 21.5362 44.5617 20.8331 46.1057 20.8393C47.4035 20.8438 49.063 21.6171 50.0915 22.4091C50.2168 22.458 44.7972 27.8544 44.1564 28.3878" stroke="#D6D6D6" stroke-width="1.5" stroke-linecap="round"/>
<path d="M47.4363 26.4539C48.1679 27.0681 48.7252 27.8876 49.0283 28.7952C49.351 29.7605 49.3883 30.8103 49.7839 31.7499C50.3856 33.1854 51.567 34.3881 53.1234 34.4627L52.9688 39.5916L44.4799 43.5036L41.4576 49.7081L36.8719 49.7099V45.6227C33.8888 46.0361 30.7234 46.1285 27.7199 45.8956V49.7267H23.0994C21.5163 46.4903 20.2505 43.2805 20.2505 43.2805C20.2505 43.2805 14.2505 40.1223 14.7448 33.1285" stroke="#D6D6D6" stroke-width="1.5" stroke-linecap="round"/>
<path d="M26.9059 20.5024C17.9894 21.9949 15.0517 29.4313 14.7832 32.7202C14.7832 32.7202 12.0694 30.3407 10.3219 32.8091C9.529 33.9291 10.3388 35.4927 11.2783 35.2909C13.3441 34.8473 12.8454 31.4642 8.39478 30.2171" stroke="#D6D6D6" stroke-width="1.5" stroke-linecap="round"/>
<path fill-rule="evenodd" clip-rule="evenodd" d="M45.8624 33.1823C45.8624 33.6535 45.4802 34.0357 45.0091 34.0357C44.538 34.0357 44.1558 33.6535 44.1558 33.1823C44.1558 32.7112 44.538 32.3281 45.0091 32.3281C45.4802 32.3281 45.8624 32.7112 45.8624 33.1823Z" fill="#D6D6D6"/>
<path fill-rule="evenodd" clip-rule="evenodd" d="M36.3062 17.5833C36.3062 19.7664 34.5364 21.5361 32.3533 21.5361C30.1711 21.5361 28.4004 19.7664 28.4004 17.5833C28.4004 15.4001 30.1711 13.6304 32.3533 13.6304C34.5364 13.6304 36.3062 15.4001 36.3062 17.5833Z" stroke="#3A9DC5" stroke-width="1.5"/>
<path d="M28.0996 25.5754H36.3058" stroke="#D6D6D6" stroke-width="1.5" stroke-linecap="round"/>
</g>
<defs>
<clipPath id="clip0_8307_65539">
<rect width="64" height="64" fill="white"/>
</clipPath>
</defs>
</svg>
