<svg width="64" height="64" viewBox="0 0 64 64" fill="none" xmlns="http://www.w3.org/2000/svg">
<g clip-path="url(#clip0_4959_46455)">
<path fill-rule="evenodd" clip-rule="evenodd" d="M64 31.9991C64 49.6721 49.6733 63.9995 32 63.9995C14.3276 63.9995 0 49.6721 0 31.9991C0 14.3269 14.3276 -0.000488281 32 -0.000488281C49.6733 -0.000488281 64 14.3269 64 31.9991Z" fill="#F3F6F7"/>
<path d="M37.7341 20.5027C38.7776 20.7729 40.9314 21.2271 42.4185 22.3587C43.5892 21.5365 44.5616 20.8334 46.1056 20.8396C47.4034 20.844 49.063 21.6174 50.0914 22.4094C50.2167 22.4582 44.7972 27.8547 44.1563 28.388" stroke="#002157" stroke-width="1.33333" stroke-linecap="round"/>
<path d="M47.4363 26.4541C48.1678 27.0683 48.7251 27.8879 49.0283 28.7954C49.3509 29.7608 49.3883 30.8105 49.7838 31.7501C50.3856 33.1857 51.5669 34.3883 53.1234 34.463L52.9687 39.5919L44.4798 43.5039L41.4576 49.7083L36.8718 49.7101V45.623C33.8887 46.0363 30.7234 46.1288 27.7198 45.8959V49.727H23.0994C21.5163 46.4905 20.2505 43.2808 20.2505 43.2808C20.2505 43.2808 14.2505 40.1225 14.7447 33.1288" stroke="#002157" stroke-width="1.33333" stroke-linecap="round"/>
<path d="M26.9059 20.5027C17.9894 21.9951 15.0517 29.4316 14.7832 32.7205C14.7832 32.7205 12.0694 30.3409 10.3219 32.8094C9.529 33.9294 10.3388 35.4929 11.2783 35.2911C13.3441 34.8476 12.8454 31.4645 8.39478 30.2174" stroke="#002157" stroke-width="1.33333" stroke-linecap="round"/>
<path fill-rule="evenodd" clip-rule="evenodd" d="M45.8625 33.1823C45.8625 33.6535 45.4803 34.0357 45.0092 34.0357C44.538 34.0357 44.1558 33.6535 44.1558 33.1823C44.1558 32.7112 44.538 32.3281 45.0092 32.3281C45.4803 32.3281 45.8625 32.7112 45.8625 33.1823Z" fill="#002157"/>
<path fill-rule="evenodd" clip-rule="evenodd" d="M32.3532 14.2972C30.5391 14.2972 29.067 15.7686 29.067 17.5834C29.067 19.3982 30.5391 20.8696 32.3532 20.8696C34.1681 20.8696 35.6394 19.3983 35.6394 17.5834C35.6394 15.7685 34.1681 14.2972 32.3532 14.2972ZM27.7336 17.5834C27.7336 15.032 29.8029 12.9639 32.3532 12.9639C34.9045 12.9639 36.9728 15.0321 36.9728 17.5834C36.9728 20.1347 34.9045 22.203 32.3532 22.203C29.8029 22.203 27.7336 20.1348 27.7336 17.5834Z" fill="#3A9DC5"/>
<path fill-rule="evenodd" clip-rule="evenodd" d="M27.4328 25.5756C27.4328 25.2074 27.7313 24.9089 28.0995 24.9089H36.3057C36.6739 24.9089 36.9724 25.2074 36.9724 25.5756C36.9724 25.9438 36.6739 26.2423 36.3057 26.2423H28.0995C27.7313 26.2423 27.4328 25.9438 27.4328 25.5756Z" fill="#002157"/>
</g>
<defs>
<clipPath id="clip0_4959_46455">
<rect width="64" height="64" fill="white"/>
</clipPath>
</defs>
</svg>
