<svg width="64" height="64" viewBox="0 0 64 64" fill="none" xmlns="http://www.w3.org/2000/svg">
<g clip-path="url(#clip0_4959_46484)">
<path fill-rule="evenodd" clip-rule="evenodd" d="M64 31.9992C64 49.6722 49.6733 63.9996 32 63.9996C14.3276 63.9996 0 49.6722 0 31.9992C0 14.327 14.3276 -0.000366211 32 -0.000366211C49.6733 -0.000366211 64 14.327 64 31.9992Z" fill="#F3F6F7"/>
<path fill-rule="evenodd" clip-rule="evenodd" d="M49.8669 44.2007H15.3238C13.57 44.2007 12.1354 42.766 12.1354 41.0122V22.742C12.1354 20.9891 13.57 19.5544 15.3238 19.5544H49.8669C51.6207 19.5544 53.0554 20.9891 53.0554 22.742V41.0122C53.0554 42.766 51.6207 44.2007 49.8669 44.2007Z" stroke="#002157" stroke-width="1.33" stroke-linecap="round"/>
<path fill-rule="evenodd" clip-rule="evenodd" d="M16.4213 29.0491H23.6329V24.906H16.4213V29.0491Z" stroke="#3A9DC5" stroke-width="1.33" stroke-linecap="round"/>
<path d="M27.3148 24.9055H47.721" stroke="#002157" stroke-width="1.33" stroke-linecap="round"/>
<path d="M27.3148 29.0487H47.721" stroke="#002157" stroke-width="1.33" stroke-linecap="round"/>
<path d="M16.4207 37.4871H31.7647" stroke="#002157" stroke-width="1.33" stroke-linecap="round"/>
<path fill-rule="evenodd" clip-rule="evenodd" d="M40.0205 37.487C40.0205 36.4701 40.8454 35.6461 41.8614 35.6461C42.8783 35.6461 43.7032 36.4701 43.7032 37.487C43.7032 38.5048 42.8783 39.3279 41.8614 39.3279C40.8454 39.3279 40.0205 38.5048 40.0205 37.487Z" stroke="#002157" stroke-width="1.33" stroke-linecap="round"/>
<path fill-rule="evenodd" clip-rule="evenodd" d="M45.8799 37.487C45.8799 36.4701 46.7048 35.6461 47.7208 35.6461C48.7386 35.6461 49.5626 36.4701 49.5626 37.487C49.5626 38.5048 48.7386 39.3279 47.7208 39.3279C46.7048 39.3279 45.8799 38.5048 45.8799 37.487Z" stroke="#002157" stroke-width="1.33" stroke-linecap="round"/>
<path fill-rule="evenodd" clip-rule="evenodd" d="M34.1613 37.487C34.1613 36.4701 34.9853 35.6461 36.0021 35.6461C37.019 35.6461 37.8439 36.4701 37.8439 37.487C37.8439 38.5048 37.019 39.3279 36.0021 39.3279C34.9853 39.3279 34.1613 38.5048 34.1613 37.487Z" stroke="#002157" stroke-width="1.33" stroke-linecap="round"/>
</g>
</svg>
