<svg width="64" height="64" viewBox="0 0 64 64" fill="none" xmlns="http://www.w3.org/2000/svg">
<g clip-path="url(#clip0_8307_65366)">
<path fill-rule="evenodd" clip-rule="evenodd" d="M64 31.9991C64 49.6721 49.6733 63.9995 32 63.9995C14.3276 63.9995 0 49.6721 0 31.9991C0 14.3269 14.3276 -0.000488281 32 -0.000488281C49.6733 -0.000488281 64 14.3269 64 31.9991Z" fill="#353535"/>
<path fill-rule="evenodd" clip-rule="evenodd" d="M49.867 44.2004H15.3239C13.5702 44.2004 12.1355 42.7658 12.1355 41.012V22.7418C12.1355 20.9889 13.5702 19.5542 15.3239 19.5542H49.867C51.6208 19.5542 53.0555 20.9889 53.0555 22.7418V41.012C53.0555 42.7658 51.6208 44.2004 49.867 44.2004Z" stroke="#D6D6D6" stroke-width="1.5" stroke-linecap="round"/>
<path fill-rule="evenodd" clip-rule="evenodd" d="M16.4214 29.0489H23.6329V24.9058H16.4214V29.0489Z" stroke="#3A9DC5" stroke-width="1.5" stroke-linecap="round"/>
<path d="M27.3149 24.9053H47.7212" stroke="#D6D6D6" stroke-width="1.5" stroke-linecap="round"/>
<path d="M27.3149 29.0486H47.7212" stroke="#D6D6D6" stroke-width="1.5" stroke-linecap="round"/>
<path d="M16.4209 37.4868H31.7649" stroke="#D6D6D6" stroke-width="1.5" stroke-linecap="round"/>
<path fill-rule="evenodd" clip-rule="evenodd" d="M40.0208 37.4869C40.0208 36.47 40.8456 35.646 41.8616 35.646C42.8785 35.646 43.7034 36.47 43.7034 37.4869C43.7034 38.5047 42.8785 39.3278 41.8616 39.3278C40.8456 39.3278 40.0208 38.5047 40.0208 37.4869Z" stroke="#D6D6D6" stroke-width="1.5" stroke-linecap="round"/>
<path fill-rule="evenodd" clip-rule="evenodd" d="M45.8801 37.4869C45.8801 36.47 46.705 35.646 47.721 35.646C48.7388 35.646 49.5628 36.47 49.5628 37.4869C49.5628 38.5047 48.7388 39.3278 47.721 39.3278C46.705 39.3278 45.8801 38.5047 45.8801 37.4869Z" stroke="#D6D6D6" stroke-width="1.5" stroke-linecap="round"/>
<path fill-rule="evenodd" clip-rule="evenodd" d="M34.1614 37.4869C34.1614 36.47 34.9854 35.646 36.0023 35.646C37.0192 35.646 37.844 36.47 37.844 37.4869C37.844 38.5047 37.0192 39.3278 36.0023 39.3278C34.9854 39.3278 34.1614 38.5047 34.1614 37.4869Z" stroke="#D6D6D6" stroke-width="1.5" stroke-linecap="round"/>
</g>
</svg>
