<svg width="64" height="64" viewBox="0 0 64 64" fill="none" xmlns="http://www.w3.org/2000/svg">
<path fill-rule="evenodd" clip-rule="evenodd" d="M64 31.9991C64 49.6721 49.6733 63.9995 32 63.9995C14.3276 63.9995 0 49.6721 0 31.9991C0 14.3269 14.3276 -0.000488281 32 -0.000488281C49.6733 -0.000488281 64 14.3269 64 31.9991Z" fill="#353535"/>
<path d="M47.5507 32.6592V50.1143H16.7427V32.6592" stroke="#D6D6D6" stroke-width="1.5" stroke-linecap="round" stroke-linejoin="round"/>
<path fill-rule="evenodd" clip-rule="evenodd" d="M28.0562 46.5678H36.1655V33.3669H28.0562V46.5678Z" stroke="#3A9DC5" stroke-width="1.5" stroke-linecap="round" stroke-linejoin="round"/>
<path fill-rule="evenodd" clip-rule="evenodd" d="M45.2591 26.0002V16.2322C45.2591 16.0589 45.1187 15.9194 44.9462 15.9194H39.1595C38.9862 15.9194 38.8467 16.0589 38.8467 16.2322V18.9638C38.8467 19.242 38.5098 19.3816 38.3142 19.1851L32.3311 13.2029C32.2093 13.0811 32.012 13.0811 31.8902 13.2029L11.4253 33.6669C11.3035 33.7896 11.3035 33.9869 11.4253 34.1087L13.0973 35.7825C13.22 35.9042 13.4182 35.9042 13.5391 35.7825L31.8902 17.4536C32.012 17.3318 32.2093 17.3318 32.3311 17.4536L50.7089 35.7558C50.8315 35.8767 51.028 35.8767 51.1507 35.7558L52.796 34.1087C52.9178 33.9869 52.9178 33.7896 52.796 33.6669L45.3507 26.2216C45.2911 26.1629 45.2591 26.0838 45.2591 26.0002Z" stroke="#D6D6D6" stroke-width="1.5" stroke-linecap="round" stroke-linejoin="round"/>
</svg>
