<svg width="64" height="64" viewBox="0 0 64 64" fill="none" xmlns="http://www.w3.org/2000/svg">
<g clip-path="url(#clip0_8307_65571)">
<path fill-rule="evenodd" clip-rule="evenodd" d="M64 31.9991C64 49.6721 49.6733 63.9995 32 63.9995C14.3276 63.9995 0 49.6721 0 31.9991C0 14.3269 14.3276 -0.000488281 32 -0.000488281C49.6733 -0.000488281 64 14.3269 64 31.9991Z" fill="#F3F6F7"/>
<path d="M45.3638 22.9229C45.3638 25.9166 47.7895 28.3442 50.7842 28.3442" stroke="#002157" stroke-width="1.5" stroke-linecap="round"/>
<path d="M18.5322 47.4715C18.5322 44.4786 16.1055 42.051 13.1108 42.051" stroke="#002157" stroke-width="1.5" stroke-linecap="round"/>
<path d="M51.3135 42.0515C48.3206 42.0515 45.8931 44.4782 45.8931 47.472" stroke="#002157" stroke-width="1.5" stroke-linecap="round"/>
<path d="M13.1113 27.7614C16.1051 27.7614 18.5327 25.3348 18.5327 22.3401" stroke="#002157" stroke-width="1.5" stroke-linecap="round"/>
<path d="M37.1101 20.9082V17.5562H26.8301V20.9082" stroke="#002157" stroke-width="1.5"/>
<path fill-rule="evenodd" clip-rule="evenodd" d="M13.1113 46.153C13.1113 46.9726 13.7753 47.6375 14.5958 47.6375H49.7727C50.5922 47.6375 51.2571 46.9726 51.2571 46.153L51.314 23.8819C51.314 23.0624 50.6491 22.3975 49.8296 22.3975L14.5958 22.3406C13.7753 22.3406 13.1113 23.0055 13.1113 23.825V46.153Z" stroke="#002157" stroke-width="1.5" stroke-linecap="round"/>
<path fill-rule="evenodd" clip-rule="evenodd" d="M37.0026 30.1485C36.6639 30.96 35.2506 31.1431 33.847 30.5574C32.4426 29.9716 31.5786 28.8383 31.9172 28.0267C32.2559 27.2151 33.6692 27.032 35.0737 27.6178C36.4772 28.2036 37.3412 29.3369 37.0026 30.1485Z" stroke="#3A9DC5" stroke-width="1.5" stroke-linecap="round"/>
<path fill-rule="evenodd" clip-rule="evenodd" d="M24.3183 37.6339L20.9095 38.2926C20.3992 38.3921 19.905 38.0588 19.8072 37.5477L19.1477 34.1388C19.049 33.6286 19.3823 33.1352 19.8926 33.0366L23.3015 32.3779C23.8126 32.2792 24.305 32.6126 24.4046 33.1228L25.0632 36.5317C25.1619 37.0419 24.8286 37.5352 24.3183 37.6339Z" stroke="#3A9DC5" stroke-width="1.5" stroke-linecap="round"/>
<path fill-rule="evenodd" clip-rule="evenodd" d="M43.2439 34.4932V39.0159C43.2439 39.2817 43.0794 39.519 42.8323 39.6141L37.147 42.7199C36.7958 42.8541 36.4047 42.6594 36.3007 42.2968L35.555 39.183C35.4767 38.9092 35.5887 38.6168 35.8296 38.4648L42.2616 33.951C42.6883 33.6826 43.2439 33.9892 43.2439 34.4932Z" stroke="#3A9DC5" stroke-width="1.5" stroke-linecap="round"/>
</g>
</svg>
